# xmcd
#
# Track frame offsets:
# 150
# 17609
# 39715
# 56251
# 76108
# 92450
# 116889
# 133257
# 141202
# 154355
# 178853
#
# Disc length: 2606 seconds
#
# Revision: 0
# Processed by: cddbd v1.4PL0 Copyright (c) Steve Scherf et al.
# Submitted via: Audion 3.0.2 (http://www.panic.com/audion/)
#
DISCID=900a2c0b
DTITLE=Idaho - Levitate
DYEAR=1900
DGENRE=
TTITLE0=Wondering the Fields
TTITLE1=20 Years
TTITLE2=For Granted
TTITLE3=On The Shore
TTITLE4=Levitate, Pt. 2
TTITLE5=Santa Claus Is Weird
TTITLE6=Orange
TTITLE7=Come Back Home
TTITLE8=Carousel
TTITLE9=Casa Mia
TTITLE10=Levitate
EXTD=
EXTT0=
EXTT1=
EXTT2=
EXTT3=
EXTT4=
EXTT5=
EXTT6=
EXTT7=
EXTT8=
EXTT9=
EXTT10=
PLAYORDER=
